<svg xmlns="http://www.w3.org/2000/svg" viewBox="0 0 256 256">
  <rect width="256" height="256" fill="#0a1118"/>
  <path d="M80 60 L80 196 L95 196 L95 140 L130 140 C155 140 170 125 170 105 C170 85 155 70 130 70 L95 70 L95 60 Z M95 85 L125 85 C145 85 155 92 155 105 C155 118 145 125 125 125 L95 125 Z" fill="#d8b15e"/>
  <path d="M140 140 L175 196 L193 196 L158 140 Z" fill="#d8b15e"/>
  <ellipse cx="200" cy="90" rx="28" ry="22" fill="none" stroke="#d8b15e" stroke-width="6" transform="rotate(25 200 90)"/>
  <path d="M185 105 Q190 115 195 118" fill="none" stroke="#d8b15e" stroke-width="5" stroke-linecap="round"/>
</svg>